<svg width="19" height="22" viewBox="0 0 19 22" fill="none" xmlns="http://www.w3.org/2000/svg">
<path d="M7.16526 20.743C-1.67889 19.6661 0.624115 11.6914 3.08838 7.56205C3.46849 7.96969 4.43654 8.8558 5.26788 9.13913C5.12312 7.48265 7.3307 4.10777 8.45259 2.62738C9.52536 1.34045 12.0235 0.145193 11.7174 1.37358C11.4114 2.60197 12.131 4.43766 12.5291 5.20195C13.3158 6.48928 14.3597 7.86449 16.3446 9.76187C17.8594 11.2099 17.8396 13.0913 17.8594 14.4071C17.7106 18.2529 14.5387 19.9531 11.7936 20.5696C10.875 20.776 10.0042 20.861 9.31046 20.8644C8.53171 20.8644 7.81811 20.8225 7.16526 20.743Z" fill="white"/>
<path d="M11.7936 20.5696C10.875 20.776 10.0042 20.861 9.31046 20.8644C-2.01801 20.8644 0.44221 11.9962 3.08838 7.56205C3.46849 7.96969 4.43654 8.8558 5.26788 9.13913C5.12312 7.48265 7.3307 4.10777 8.45259 2.62738C9.52536 1.34045 12.0235 0.145193 11.7174 1.37358C11.4114 2.60197 12.131 4.43766 12.5291 5.20195C13.3158 6.48928 14.3597 7.86449 16.3446 9.76187C17.8594 11.2099 17.8396 13.0913 17.8594 14.4071C17.7106 18.2529 14.5387 19.9531 11.7936 20.5696ZM11.7936 20.5696C12.8117 19.0231 13.7404 15.1577 9.31081 12.0682C4.59061 14.8574 5.87794 19.1485 7.16526 20.743" stroke="#1D1D1D" stroke-width="1.71643"/>
</svg>
