<svg width="21" height="23" viewBox="0 0 21 23" fill="none" xmlns="http://www.w3.org/2000/svg">
<path d="M11.5518 19.0078L8.91406 21.6456" stroke="#1D1D1D" stroke-width="1.3793" stroke-linecap="round"/>
<path d="M10.3292 16.3633L7.69141 19.001" stroke="white" stroke-width="1.3793" stroke-linecap="round"/>
<path d="M3.32917 13.8945L0.691406 16.5323" stroke="#1D1D1D" stroke-width="1.3793" stroke-linecap="round"/>
<path d="M5.32917 15.3633L2.69141 18.001" stroke="white" stroke-width="1.3793" stroke-linecap="round"/>
<path d="M4.88386 19.2305L2.24609 21.8682" stroke="#1D1D1D" stroke-width="1.3793" stroke-linecap="round"/>
<path d="M4.32917 10.3633L1.69141 13.001" stroke="white" stroke-width="1.3793" stroke-linecap="round"/>
<path d="M11.5166 1.38477C11.894 0.460443 13.2231 0.460578 13.6006 1.38477L13.6357 1.48047L14.8896 5.44531H18.9697C20.0563 5.44539 20.5154 6.82965 19.6445 7.47949L16.3193 9.96094L17.585 13.9648C17.9158 15.0106 16.7121 15.8668 15.833 15.2109L12.5586 12.7666L9.28418 15.2109C8.40517 15.8663 7.20155 15.0104 7.53223 13.9648L8.79785 9.96094L5.47266 7.47949C4.60199 6.82958 5.06187 5.44531 6.14844 5.44531H10.2285L11.4824 1.48047L11.5166 1.38477Z" fill="white" stroke="#1D1D1D" stroke-width="1.3793"/>
</svg>
